{"title":"Street Trash (1987) sub PT-BR","uid":7484835,"size":811060942,"categoryP":"video","categoryS":"movies","magnet":"?xt=urn:btih:bf2f743041c9ae68ddcd5dcbb314a5ca23868811&amp;dn=Street+Trash+%281987%29+sub+PT-BR&amp;tr=udp%3A%2F%2Ftracker.openbittorrent.com%3A80&amp;tr=udp%3A%2F%2Fopen.demonii.com%3A1337&amp;tr=udp%3A%2F%2Ftracker.coppersurfer.tk%3A6969&amp;tr=udp%3A%2F%2Fexodus.desync.com%3A6969","seeders":0,"leechers":0,"uploader":null,"files":-1,"time":1343549215,"description":"General\nFormat                                   : AVI\nFormat/Info                              : Audio Video Interleave\nFile size                                : 792 MiB\nDuration                                 : 1h 41mn\nOverall bit rate                         : 1 095 Kbps\nMovie name                               : Street Trash [Uncut] DVD Rip By AndyK\nDirector                                 : Andy\nWriting application                      : Lavf51.10.0\nOriginal source form/Name                : STREET TRASH SE DISC 1\n\nVideo\nID                                       : 0\nFormat                                   : MPEG-4 Visual\nFormat profile                           : Simple@L3\nFormat settings, BVOP                    : No\nFormat settings, QPel                    : No\nFormat settings, GMC                     : No warppoints\nFormat settings, Matrix                  : Default (H.263)\nCodec ID                                 : XVID\nCodec ID/Hint                            : XviD\nDuration                                 : 1h 41mn\nBit rate                                 : 892 Kbps\nWidth                                    : 768 pixels\nHeight                                   : 432 pixels\nDisplay aspect ratio                     : 16:9\nFrame rate                               : 23.976 fps\nColor space                              : YUV\nChroma subsampling                       : 4:2:0\nBit depth                                : 8 bits\nScan type                                : Progressive\nCompression mode                         : Lossy\nBits/(Pixel*Frame)                       : 0.112\nStream size                              : 645 MiB (81%)\nWriting library                          : XviD 1.1.2 (UTC 2006-11-01)\n\nAudio\nID                                       : 1\nFormat                                   : AC-3\nFormat/Info                              : Audio Coding 3\nMode extension                           : CM (complete main)\nFormat settings, Endianness              : Big\nCodec ID                                 : 2000\nDuration                                 : 1h 41mn\nBit rate mode                            : Constant\nBit rate                                 : 192 Kbps\nChannel(s)                               : 2 channels\nChannel positions                        : Front: L R\nSampling rate                            : 48.0 KHz\nBit depth                                : 16 bits\nCompression mode                         : Lossy\nStream size                              : 139 MiB (18%)\nAlignment                                : Aligned on interleaves\nInterleave, duration                     : 32 ms (0.77 video frame)\nInterleave, preload duration             : 32 ms","torrent":{"xt":"urn:btih:bf2f743041c9ae68ddcd5dcbb314a5ca23868811","amp;dn":"Street+Trash+%281987%29+sub+PT-BR","amp;tr":["udp%3A%2F%2Ftracker.openbittorrent.com%3A80","udp%3A%2F%2Fopen.demonii.com%3A1337","udp%3A%2F%2Ftracker.coppersurfer.tk%3A6969","udp%3A%2F%2Fexodus.desync.com%3A6969"],"infoHash":"bf2f743041c9ae68ddcd5dcbb314a5ca23868811","infoHashBuffer":{"type":"Buffer","data":[191,47,116,48,65,201,174,104,221,205,93,203,179,20,165,202,35,134,136,17]},"announce":[],"urlList":[]}}